ffmpeg started on 2016-12-06 at 03:30:36
Report written to "Output/x264/results/ffmpeg/sintelfast3000k.log"
Command line:
Tools/ffmpeg/ffmpeg -benchmark -y -i Input/y4m/sintel.y4m -c:v libx264 -preset fast -b:v 3000k -an Output/x264/encoded/sintelfast3000k.mkv
ffmpeg version N-82227-gdb23fde Copyright (c) 2000-2016 the FFmpeg developers
  built with gcc 5.4.0 (Ubuntu 5.4.0-6ubuntu1~16.04.2) 20160609
  configuration: --prefix=/home/jaroslav/ffmpeg_build --pkg-config-flags=--static --extra-cflags=-I/home/jaroslav/ffmpeg_build/include --extra-ldflags=-L/home/jaroslav/ffmpeg_build/lib --bindir=/home/jaroslav/bin --enable-gpl --enable-libass --enable-libfdk-aac --enable-libfreetype --enable-libmp3lame --enable-libopus --enable-libtheora --enable-libvorbis --enable-libvpx --enable-libx264 --enable-libx265 --enable-nvenc --enable-libmfx --enable-libxvid --enable-libgsm --enable-libopencore-amrnb --enable-version3 --enable-nonfree
  libavutil      55. 35.100 / 55. 35.100
  libavcodec     57. 66.101 / 57. 66.101
  libavformat    57. 57.100 / 57. 57.100
  libavdevice    57.  2.100 / 57.  2.100
  libavfilter     6. 66.100 /  6. 66.100
  libswscale      4.  3.100 /  4.  3.100
  libswresample   2.  4.100 /  2.  4.100
  libpostproc    54.  2.100 / 54.  2.100
Input #0, yuv4mpegpipe, from 'Input/y4m/sintel.y4m':
  Duration: 00:00:20.83, start: 0.000000, bitrate: 2057307 kb/s
    Stream #0:0: Video: rawvideo (I420 / 0x30323449), yuv420p(progressive), 4096x1744, SAR 1:1 DAR 256:109, 24 fps, 24 tbr, 24 tbn, 24 tbc
[libx264 @ 0x3cb8120] using SAR=1/1
[libx264 @ 0x3cb8120] using cpu capabilities: MMX2 SSE2Fast SSSE3 SSE4.2 AVX FMA3 AVX2 LZCNT BMI2
[libx264 @ 0x3cb8120] profile High, level 5.1
[libx264 @ 0x3cb8120] 264 - core 148 - H.264/MPEG-4 AVC codec - Copyleft 2003-2016 - http://www.videolan.org/x264.html - options: cabac=1 ref=2 deblock=1:0:0 analyse=0x3:0x113 me=hex subme=6 psy=1 psy_rd=1.00:0.00 mixed_ref=1 me_range=16 chroma_me=1 trellis=1 8x8dct=1 cqm=0 deadzone=21,11 fast_pskip=1 chroma_qp_offset=-2 threads=6 lookahead_threads=1 sliced_threads=0 nr=0 decimate=1 interlaced=0 bluray_compat=0 constrained_intra=0 bframes=3 b_pyramid=2 b_adapt=1 b_bias=0 direct=1 weightb=1 open_gop=0 weightp=1 keyint=250 keyint_min=24 scenecut=40 intra_refresh=0 rc_lookahead=30 rc=abr mbtree=1 bitrate=3000 ratetol=1.0 qcomp=0.60 qpmin=0 qpmax=69 qpstep=4 ip_ratio=1.40 aq=1:1.00
Output #0, matroska, to 'Output/x264/encoded/sintelfast3000k.mkv':
  Metadata:
    encoder         : Lavf57.57.100
    Stream #0:0: Video: h264 (libx264) (H264 / 0x34363248), yuv420p, 4096x1744 [SAR 1:1 DAR 256:109], q=-1--1, 3000 kb/s, 24 fps, 1k tbn, 24 tbc
    Metadata:
      encoder         : Lavc57.66.101 libx264
    Side data:
      cpb: bitrate max/min/avg: 0/0/3000000 buffer size: 0 vbv_delay: -1
Stream mapping:
  Stream #0:0 -> #0:0 (rawvideo (native) -> h264 (libx264))
Press [q] to stop, [?] for help
frame=    9 fps=0.0 q=0.0 size=       0kB time=00:00:00.00 bitrate=N/A speed=   0x    frame=   16 fps= 14 q=0.0 size=       0kB time=00:00:00.00 bitrate=N/A speed=   0x    frame=   25 fps= 15 q=0.0 size=       0kB time=00:00:00.00 bitrate=N/A speed=   0x    frame=   34 fps= 15 q=0.0 size=       0kB time=00:00:00.00 bitrate=N/A speed=   0x    frame=   37 fps=9.3 q=0.0 size=       0kB time=00:00:00.00 bitrate=N/A speed=   0x    frame=   38 fps=5.2 q=0.0 size=       0kB time=00:00:00.00 bitrate=N/A speed=   0x    frame=   39 fps=3.7 q=0.0 size=       0kB time=00:00:00.00 bitrate=N/A speed=   0x    frame=   40 fps=3.4 q=0.0 size=       0kB time=00:00:00.00 bitrate=N/A speed=   0x    frame=   46 fps=3.7 q=42.0 size=       1kB time=00:00:00.12 bitrate=  46.6kbits/s speed=0.01x    frame=   49 fps=3.7 q=53.0 size=       1kB time=00:00:00.25 bitrate=  23.4kbits/s speed=0.0192x    frame=   55 fps=4.0 q=53.0 size=       1kB time=00:00:00.50 bitrate=  11.7kbits/s speed=0.0368x    frame=   63 fps=4.5 q=55.0 size=       1kB time=00:00:00.83 bitrate=   7.0kbits/s speed=0.059x    frame=   71 fps=4.8 q=54.0 size=       1kB time=00:00:01.16 bitrate=   5.0kbits/s speed=0.0797x    frame=   79 fps=5.2 q=53.0 size=       1kB time=00:00:01.50 bitrate=   3.9kbits/s speed=0.0987x    frame=   87 fps=5.5 q=52.0 size=       1kB time=00:00:01.83 bitrate=   3.2kbits/s speed=0.116x    frame=   95 fps=5.8 q=52.0 size=       1kB time=00:00:02.16 bitrate=   2.7kbits/s speed=0.133x    frame=  102 fps=6.1 q=52.0 size=       1kB time=00:00:02.45 bitrate=   2.4kbits/s speed=0.146x    frame=  109 fps=6.2 q=52.0 size=       1kB time=00:00:02.75 bitrate=   2.1kbits/s speed=0.157x    frame=  115 fps=6.4 q=52.0 size=       1kB time=00:00:03.00 bitrate=   2.0kbits/s speed=0.167x    frame=  121 fps=6.5 q=52.0 size=       1kB time=00:00:03.25 bitrate=   1.8kbits/s speed=0.176x    frame=  128 fps=6.7 q=52.0 size=       1kB time=00:00:03.54 bitrate=   1.7kbits/s speed=0.184x    frame=  136 fps=6.8 q=52.0 size=       1kB time=00:00:03.87 bitrate=   1.5kbits/s speed=0.195x    frame=  144 fps=7.0 q=51.0 size=    1756kB time=00:00:04.20 bitrate=3418.3kbits/s speed=0.205x    frame=  153 fps=7.3 q=51.0 size=    1756kB time=00:00:04.58 bitrate=3138.6kbits/s speed=0.217x    frame=  162 fps=7.5 q=51.0 size=    1756kB time=00:00:04.95 bitrate=2901.3kbits/s speed=0.229x    frame=  170 fps=7.6 q=51.0 size=    1756kB time=00:00:05.29 bitrate=2718.2kbits/s speed=0.238x    frame=  178 fps=7.8 q=51.0 size=    1756kB time=00:00:05.62 bitrate=2557.3kbits/s speed=0.247x    frame=  185 fps=7.9 q=51.0 size=    1756kB time=00:00:05.91 bitrate=2431.1kbits/s speed=0.254x    frame=  191 fps=8.0 q=51.0 size=    1756kB time=00:00:06.16 bitrate=2332.6kbits/s speed=0.259x    frame=  201 fps=8.2 q=51.0 size=    2636kB time=00:00:06.58 bitrate=3280.1kbits/s speed=0.27x    frame=  208 fps=8.4 q=51.0 size=    2636kB time=00:00:06.87 bitrate=3140.8kbits/s speed=0.276x    frame=  216 fps=8.5 q=51.0 size=    2636kB time=00:00:07.20 bitrate=2995.7kbits/s speed=0.283x    frame=  221 fps=8.5 q=51.0 size=    2636kB time=00:00:07.41 bitrate=2911.3kbits/s speed=0.284x    frame=  228 fps=8.6 q=51.0 size=    2960kB time=00:00:07.70 bitrate=3145.1kbits/s speed=0.29x    frame=  236 fps=8.7 q=50.0 size=    2960kB time=00:00:08.04 bitrate=3014.5kbits/s speed=0.296x    frame=  242 fps=8.7 q=50.0 size=    2960kB time=00:00:08.29 bitrate=2923.6kbits/s speed= 0.3x    frame=  250 fps=8.9 q=50.0 size=    2960kB time=00:00:08.62 bitrate=2810.8kbits/s speed=0.306x    frame=  259 fps=9.0 q=50.0 size=    2960kB time=00:00:09.00 bitrate=2693.6kbits/s speed=0.312x    frame=  268 fps=9.1 q=50.0 size=    2960kB time=00:00:09.37 bitrate=2585.9kbits/s speed=0.318x    frame=  276 fps=9.2 q=50.0 size=    2960kB time=00:00:09.70 bitrate=2497.2kbits/s speed=0.324x    frame=  284 fps=9.3 q=50.0 size=    2960kB time=00:00:10.04 bitrate=2414.2kbits/s speed=0.329x    frame=  292 fps=9.4 q=49.0 size=    2960kB time=00:00:10.37 bitrate=2336.7kbits/s speed=0.335x    frame=  300 fps=9.5 q=49.0 size=    2960kB time=00:00:10.70 bitrate=2264.0kbits/s speed=0.34x    frame=  302 fps=9.4 q=49.0 size=    2960kB time=00:00:10.79 bitrate=2246.4kbits/s speed=0.336x    frame=  311 fps=9.5 q=49.0 size=    3896kB time=00:00:11.16 bitrate=2857.9kbits/s speed=0.343x    frame=  320 fps=9.7 q=49.0 size=    3896kB time=00:00:11.54 bitrate=2765.0kbits/s speed=0.348x    frame=  329 fps=9.8 q=49.0 size=    3896kB time=00:00:11.91 bitrate=2678.0kbits/s speed=0.353x    frame=  341 fps=9.9 q=48.0 size=    3896kB time=00:00:12.41 bitrate=2570.2kbits/s speed=0.362x    frame=  352 fps= 10 q=48.0 size=    3896kB time=00:00:12.87 bitrate=2478.8kbits/s speed=0.37x    frame=  363 fps= 10 q=47.0 size=    3896kB time=00:00:13.33 bitrate=2393.6kbits/s speed=0.376x    frame=  375 fps= 10 q=46.0 size=    3896kB time=00:00:13.83 bitrate=2307.1kbits/s speed=0.383x    frame=  385 fps= 11 q=46.0 size=    3896kB time=00:00:14.25 bitrate=2239.6kbits/s speed=0.389x    frame=  395 fps= 11 q=45.0 size=    3896kB time=00:00:14.66 bitrate=2175.9kbits/s speed=0.393x    frame=  403 fps= 11 q=45.0 size=    4650kB time=00:00:15.00 bitrate=2539.1kbits/s speed=0.397x    frame=  411 fps= 11 q=45.0 size=    4650kB time=00:00:15.33 bitrate=2484.0kbits/s speed= 0.4x    frame=  417 fps= 11 q=45.0 size=    4650kB time=00:00:15.58 bitrate=2444.1kbits/s speed=0.401x    frame=  427 fps= 11 q=45.0 size=    4650kB time=00:00:16.00 bitrate=2380.4kbits/s speed=0.405x    frame=  434 fps= 11 q=45.0 size=    4650kB time=00:00:16.29 bitrate=2337.8kbits/s speed=0.408x    frame=  441 fps= 11 q=45.0 size=    4650kB time=00:00:16.58 bitrate=2296.8kbits/s speed=0.409x    frame=  449 fps= 11 q=45.0 size=    4650kB time=00:00:16.91 bitrate=2251.4kbits/s speed=0.412x    frame=  459 fps= 11 q=45.0 size=    5440kB time=00:00:17.33 bitrate=2570.9kbits/s speed=0.416x    frame=  466 fps= 11 q=45.0 size=    5440kB time=00:00:17.62 bitrate=2528.3kbits/s speed=0.418x    frame=  473 fps= 11 q=45.0 size=    5440kB time=00:00:17.91 bitrate=2487.1kbits/s speed=0.419x    frame=  483 fps= 11 q=44.0 size=    5440kB time=00:00:18.33 bitrate=2430.7kbits/s speed=0.424x    frame=  493 fps= 11 q=44.0 size=    5440kB time=00:00:18.75 bitrate=2376.7kbits/s speed=0.426x    frame=  500 fps= 11 q=44.0 size=    5440kB time=00:00:19.04 bitrate=2340.2kbits/s speed=0.427x    frame=  500 fps= 11 q=-1.0 Lsize=    6384kB time=00:00:20.70 bitrate=2525.3kbits/s speed=0.449x    
video:6379kB audio:0kB subtitle:0kB other streams:0kB global headers:0kB muxing overhead: 0.070295%
bench: utime=125.444s
bench: maxrss=1320832kB
[libx264 @ 0x3cb8120] frame I:8     Avg QP:39.31  size: 40876
[libx264 @ 0x3cb8120] frame P:269   Avg QP:44.93  size: 14235
[libx264 @ 0x3cb8120] frame B:223   Avg QP:42.71  size: 10653
[libx264 @ 0x3cb8120] consecutive B-frames: 37.0%  8.4%  6.6% 48.0%
[libx264 @ 0x3cb8120] mb I  I16..4: 21.6% 77.8%  0.7%
[libx264 @ 0x3cb8120] mb P  I16..4:  8.7% 29.3%  0.0%  P16..4:  7.2%  0.3%  0.1%  0.0%  0.0%    skip:54.4%
[libx264 @ 0x3cb8120] mb B  I16..4:  5.9%  3.7%  0.0%  B16..8: 10.1%  0.4%  0.0%  direct: 2.7%  skip:77.3%  L0:44.9% L1:53.6% BI: 1.5%
[libx264 @ 0x3cb8120] final ratefactor: 41.53
[libx264 @ 0x3cb8120] 8x8 transform intra:70.9% inter:96.7%
[libx264 @ 0x3cb8120] coded y,uvDC,uvAC intra: 5.5% 15.6% 0.1% inter: 0.9% 1.4% 0.0%
[libx264 @ 0x3cb8120] i16 v,h,dc,p: 43% 34%  9% 14%
[libx264 @ 0x3cb8120] i8 v,h,dc,ddl,ddr,vr,hd,vl,hu: 19%  8% 70%  1%  1%  0%  1%  0%  1%
[libx264 @ 0x3cb8120] i4 v,h,dc,ddl,ddr,vr,hd,vl,hu: 22% 27% 14%  8%  8%  5%  8%  4%  5%
[libx264 @ 0x3cb8120] i8c dc,h,v,p: 95%  2%  2%  0%
[libx264 @ 0x3cb8120] Weighted P-Frames: Y:0.7% UV:0.0%
[libx264 @ 0x3cb8120] ref P L0: 65.2% 34.8%
[libx264 @ 0x3cb8120] ref B L0: 80.9% 19.1%
[libx264 @ 0x3cb8120] ref B L1: 95.9%  4.1%
[libx264 @ 0x3cb8120] kb/s:2508.21
